# MagicaVoxel @ Ephtracy

# group
o 

# material
mtllib grassCube.mtl
usemtl palette

# normals
vn -1 0 0
vn 1 0 0
vn 0 0 1
vn 0 0 -1
vn 0 -1 0
vn 0 1 0

# texcoords
vt 0.306641 0.5
vt 0.373047 0.5
vt 0.537109 0.5
vt 0.744141 0.5
vt 0.892578 0.5

# verts
v -0.8 0 0.8
v -0.8 0 -0.8
v -0.8 0.1 -0.6
v -0.8 0.1 -0.7
v -0.8 0.2 0.1
v -0.8 0.2 0
v -0.8 0.2 -0.6
v -0.8 0.2 -0.7
v -0.8 0.3 0.5
v -0.8 0.3 0.4
v -0.8 0.3 0.1
v -0.8 0.3 0
v -0.8 0.3 -0.3
v -0.8 0.3 -0.4
v -0.8 0.4 0.5
v -0.8 0.4 0.4
v -0.8 0.4 -0.3
v -0.8 0.4 -0.4
v -0.8 0.5 0
v -0.8 0.5 -0.1
v -0.8 0.6 0
v -0.8 0.6 -0.1
v -0.8 0.6 -0.5
v -0.8 0.6 -0.6
v -0.8 0.7 -0.5
v -0.8 0.7 -0.6
v -0.8 0.8 0.6
v -0.8 0.8 0.5
v -0.8 0.8 0.1
v -0.8 0.8 0
v -0.8 0.9 0.6
v -0.8 0.9 0.5
v -0.8 0.9 0.1
v -0.8 0.9 0
v -0.8 0.9 -0.4
v -0.8 0.9 -0.5
v -0.8 1 -0.4
v -0.8 1 -0.5
v -0.8 1.2 0.8
v -0.8 1.2 -0.8
v -0.8 1.5 0.5
v -0.8 1.5 0.4
v -0.8 1.5 -0.2
v -0.8 1.5 -0.3
v -0.8 1.6 0.8
v -0.8 1.6 0.5
v -0.8 1.6 0.4
v -0.8 1.6 -0.2
v -0.8 1.6 -0.3
v -0.8 1.6 -0.8
v 0.8 0 0.8
v 0.8 0 0.1
v 0.8 0 0
v 0.8 0 -0.8
v 0.8 0.1 0.1
v 0.8 0.1 0
v 0.8 0.2 0.7
v 0.8 0.2 0.6
v 0.8 0.2 -0.3
v 0.8 0.2 -0.4
v 0.8 0.3 0.7
v 0.8 0.3 0.6
v 0.8 0.3 0.3
v 0.8 0.3 0.2
v 0.8 0.3 -0.3
v 0.8 0.3 -0.4
v 0.8 0.3 -0.5
v 0.8 0.3 -0.6
v 0.8 0.4 0.3
v 0.8 0.4 0.2
v 0.8 0.4 -0.5
v 0.8 0.4 -0.6
v 0.8 0.5 0.5
v 0.8 0.5 0.4
v 0.8 0.5 -0.1
v 0.8 0.5 -0.2
v 0.8 0.6 0.5
v 0.8 0.6 0.4
v 0.8 0.6 -0.1
v 0.8 0.6 -0.2
v 0.8 0.7 -0.5
v 0.8 0.7 -0.6
v 0.8 0.8 0.4
v 0.8 0.8 0.3
v 0.8 0.8 -0.5
v 0.8 0.8 -0.6
v 0.8 0.9 0.4
v 0.8 0.9 0.3
v 0.8 0.9 -0.2
v 0.8 0.9 -0.3
v 0.8 1 0.6
v 0.8 1 0.5
v 0.8 1 -0.2
v 0.8 1 -0.3
v 0.8 1.1 0.6
v 0.8 1.1 0.5
v 0.8 1.2 0.8
v 0.8 1.2 -0.8
v 0.8 1.5 0.7
v 0.8 1.5 0.6
v 0.8 1.6 0.8
v 0.8 1.6 0.7
v 0.8 1.6 0.6
v 0.8 1.6 -0.8
v -0.8 0 0.8
v -0.8 1.2 0.8
v -0.8 1.6 0.8
v -0.6 0.5 0.8
v -0.6 0.6 0.8
v -0.6 1 0.8
v -0.6 1.1 0.8
v -0.6 1.5 0.8
v -0.6 1.6 0.8
v -0.5 0.1 0.8
v -0.5 0.2 0.8
v -0.5 0.5 0.8
v -0.5 0.6 0.8
v -0.5 1 0.8
v -0.5 1.1 0.8
v -0.5 1.5 0.8
v -0.5 1.6 0.8
v -0.4 0.1 0.8
v -0.4 0.2 0.8
v -0.3 0.7 0.8
v -0.3 0.8 0.8
v -0.2 0.3 0.8
v -0.2 0.4 0.8
v -0.2 0.7 0.8
v -0.2 0.8 0.8
v -0.1 0.3 0.8
v -0.1 0.4 0.8
v -0.1 0.7 0.8
v -0.1 0.8 0.8
v 0 0.7 0.8
v 0 0.8 0.8
v 0.2 0.4 0.8
v 0.2 0.5 0.8
v 0.2 0.8 0.8
v 0.2 0.9 0.8
v 0.3 0.4 0.8
v 0.3 0.5 0.8
v 0.3 0.8 0.8
v 0.3 0.9 0.8
v 0.4 0.4 0.8
v 0.4 0.5 0.8
v 0.5 0.4 0.8
v 0.5 0.5 0.8
v 0.5 0.9 0.8
v 0.5 1 0.8
v 0.6 0.9 0.8
v 0.6 1 0.8
v 0.8 0 0.8
v 0.8 1.2 0.8
v 0.8 1.6 0.8
v -0.8 0 -0.8
v -0.8 1.2 -0.8
v -0.8 1.6 -0.8
v -0.5 0.5 -0.8
v -0.5 0.6 -0.8
v -0.5 0.9 -0.8
v -0.5 1 -0.8
v -0.4 0.5 -0.8
v -0.4 0.6 -0.8
v -0.4 0.9 -0.8
v -0.4 1 -0.8
v -0.3 0.2 -0.8
v -0.3 0.3 -0.8
v -0.2 0.2 -0.8
v -0.2 0.3 -0.8
v -0.1 0.9 -0.8
v -0.1 1 -0.8
v 0 0.3 -0.8
v 0 0.4 -0.8
v 0 0.7 -0.8
v 0 0.8 -0.8
v 0 0.9 -0.8
v 0 1 -0.8
v 0.1 0.3 -0.8
v 0.1 0.4 -0.8
v 0.1 0.7 -0.8
v 0.1 0.8 -0.8
v 0.5 0.2 -0.8
v 0.5 0.3 -0.8
v 0.5 0.6 -0.8
v 0.5 0.7 -0.8
v 0.5 1 -0.8
v 0.5 1.1 -0.8
v 0.6 0.2 -0.8
v 0.6 0.3 -0.8
v 0.6 0.6 -0.8
v 0.6 0.7 -0.8
v 0.6 1 -0.8
v 0.6 1.1 -0.8
v 0.8 0 -0.8
v 0.8 1.2 -0.8
v 0.8 1.6 -0.8
v -0.8 0 0.8
v 0.8 0 0.8
v -0.7 0 0.7
v 0.7 0 0.7
v 0.7 0 0.1
v 0.8 0 0.1
v 0.7 0 0
v 0.8 0 0
v -0.7 0 -0.7
v 0.7 0 -0.7
v -0.8 0 -0.8
v 0.8 0 -0.8
v -0.8 1.6 0.8
v -0.6 1.6 0.8
v -0.5 1.6 0.8
v 0.8 1.6 0.8
v 0.3 1.6 0.7
v 0.4 1.6 0.7
v 0.7 1.6 0.7
v 0.8 1.6 0.7
v -0.6 1.6 0.6
v -0.5 1.6 0.6
v -0.2 1.6 0.6
v -0.1 1.6 0.6
v 0.1 1.6 0.6
v 0.2 1.6 0.6
v 0.3 1.6 0.6
v 0.4 1.6 0.6
v 0.7 1.6 0.6
v 0.8 1.6 0.6
v -0.8 1.6 0.5
v -0.7 1.6 0.5
v -0.5 1.6 0.5
v -0.3 1.6 0.5
v -0.2 1.6 0.5
v -0.1 1.6 0.5
v 0.1 1.6 0.5
v 0.2 1.6 0.5
v 0.4 1.6 0.5
v 0.6 1.6 0.5
v 0.7 1.6 0.5
v -0.8 1.6 0.4
v -0.7 1.6 0.4
v -0.5 1.6 0.4
v -0.3 1.6 0.4
v 0.2 1.6 0.4
v 0.4 1.6 0.4
v 0.6 1.6 0.4
v 0.7 1.6 0.4
v -0.5 1.6 0.3
v -0.3 1.6 0.3
v 0 1.6 0.3
v 0.1 1.6 0.3
v -0.5 1.6 0.2
v -0.3 1.6 0.2
v -0.2 1.6 0.2
v 0 1.6 0.2
v 0.1 1.6 0.2
v 0.4 1.6 0.2
v 0.5 1.6 0.2
v -0.5 1.6 0.1
v -0.4 1.6 0.1
v -0.3 1.6 0.1
v -0.2 1.6 0.1
v 0.4 1.6 0.1
v 0.5 1.6 0.1
v 0.6 1.6 0.1
v -0.7 1.6 0
v -0.6 1.6 0
v -0.5 1.6 0
v -0.4 1.6 0
v -0.2 1.6 0
v -0.1 1.6 0
v 0 1.6 0
v 0.1 1.6 0
v 0.2 1.6 0
v 0.3 1.6 0
v 0.5 1.6 0
v 0.6 1.6 0
v -0.7 1.6 -0.1
v -0.6 1.6 -0.1
v -0.2 1.6 -0.1
v -0.1 1.6 -0.1
v 0 1.6 -0.1
v 0.1 1.6 -0.1
v 0.2 1.6 -0.1
v 0.3 1.6 -0.1
v 0.5 1.6 -0.1
v -0.8 1.6 -0.2
v -0.7 1.6 -0.2
v -0.4 1.6 -0.2
v -0.3 1.6 -0.2
v 0.1 1.6 -0.2
v 0.2 1.6 -0.2
v 0.3 1.6 -0.2
v 0.5 1.6 -0.2
v -0.8 1.6 -0.3
v -0.7 1.6 -0.3
v -0.4 1.6 -0.3
v -0.3 1.6 -0.3
v -0.1 1.6 -0.3
v 0 1.6 -0.3
v 0.2 1.6 -0.3
v 0.3 1.6 -0.3
v 0.5 1.6 -0.3
v 0.6 1.6 -0.3
v -0.6 1.6 -0.4
v -0.5 1.6 -0.4
v 0.2 1.6 -0.4
v 0.3 1.6 -0.4
v 0.5 1.6 -0.4
v 0.6 1.6 -0.4
v -0.6 1.6 -0.5
v -0.5 1.6 -0.5
v -0.4 1.6 -0.5
v -0.3 1.6 -0.5
v -0.1 1.6 -0.5
v 0 1.6 -0.5
v 0.1 1.6 -0.5
v 0.2 1.6 -0.5
v -0.6 1.6 -0.6
v -0.5 1.6 -0.6
v -0.4 1.6 -0.6
v -0.3 1.6 -0.6
v -0.1 1.6 -0.6
v 0.1 1.6 -0.6
v 0.2 1.6 -0.6
v 0.5 1.6 -0.6
v 0.6 1.6 -0.6
v -0.6 1.6 -0.7
v -0.5 1.6 -0.7
v -0.1 1.6 -0.7
v 0.1 1.6 -0.7
v 0.5 1.6 -0.7
v 0.6 1.6 -0.7
v -0.8 1.6 -0.8
v 0.8 1.6 -0.8

# faces
f 3/2/1 2/2/1 1/2/1
f 4/2/1 2/2/1 3/2/1
f 5/2/1 3/2/1 1/2/1
f 6/2/1 3/2/1 5/2/1
f 7/3/1 4/3/1 3/3/1
f 7/2/1 3/2/1 6/2/1
f 8/2/1 2/2/1 4/2/1
f 8/3/1 4/3/1 7/3/1
f 9/2/1 5/2/1 1/2/1
f 10/2/1 5/2/1 9/2/1
f 11/3/1 6/3/1 5/3/1
f 11/2/1 5/2/1 10/2/1
f 12/2/1 7/2/1 6/2/1
f 12/3/1 6/3/1 11/3/1
f 12/2/1 8/2/1 7/2/1
f 13/2/1 8/2/1 12/2/1
f 14/2/1 8/2/1 13/2/1
f 15/3/1 10/3/1 9/3/1
f 15/2/1 9/2/1 1/2/1
f 16/2/1 11/2/1 10/2/1
f 16/3/1 10/3/1 15/3/1
f 16/2/1 12/2/1 11/2/1
f 16/2/1 13/2/1 12/2/1
f 17/3/1 14/3/1 13/3/1
f 17/2/1 13/2/1 16/2/1
f 18/2/1 8/2/1 14/2/1
f 18/3/1 14/3/1 17/3/1
f 19/2/1 17/2/1 16/2/1
f 19/2/1 16/2/1 15/2/1
f 19/2/1 18/2/1 17/2/1
f 20/2/1 18/2/1 19/2/1
f 21/2/1 19/2/1 15/2/1
f 21/3/1 20/3/1 19/3/1
f 22/2/1 18/2/1 20/2/1
f 22/3/1 20/3/1 21/3/1
f 23/2/1 8/2/1 18/2/1
f 23/2/1 18/2/1 22/2/1
f 24/2/1 8/2/1 23/2/1
f 25/2/1 22/2/1 21/2/1
f 25/2/1 23/2/1 22/2/1
f 25/3/1 24/3/1 23/3/1
f 26/2/1 8/2/1 24/2/1
f 26/3/1 24/3/1 25/3/1
f 27/2/1 15/2/1 1/2/1
f 27/2/1 25/2/1 21/2/1
f 27/2/1 26/2/1 25/2/1
f 27/2/1 21/2/1 15/2/1
f 28/2/1 26/2/1 27/2/1
f 29/2/1 26/2/1 28/2/1
f 30/2/1 26/2/1 29/2/1
f 31/2/1 27/2/1 1/2/1
f 31/3/1 28/3/1 27/3/1
f 32/2/1 29/2/1 28/2/1
f 32/3/1 28/3/1 31/3/1
f 33/3/1 30/3/1 29/3/1
f 33/2/1 29/2/1 32/2/1
f 34/2/1 26/2/1 30/2/1
f 34/3/1 30/3/1 33/3/1
f 35/2/1 26/2/1 34/2/1
f 36/2/1 26/2/1 35/2/1
f 37/2/1 33/2/1 32/2/1
f 37/2/1 32/2/1 31/2/1
f 37/3/1 36/3/1 35/3/1
f 37/2/1 35/2/1 34/2/1
f 37/2/1 34/2/1 33/2/1
f 38/2/1 26/2/1 36/2/1
f 38/3/1 36/3/1 37/3/1
f 39/2/1 37/2/1 31/2/1
f 39/2/1 31/2/1 1/2/1
f 39/2/1 38/2/1 37/2/1
f 40/2/1 8/2/1 26/2/1
f 40/2/1 38/2/1 39/2/1
f 40/2/1 2/2/1 8/2/1
f 40/2/1 26/2/1 38/2/1
f 41/5/1 40/5/1 39/5/1
f 42/5/1 40/5/1 41/5/1
f 43/5/1 40/5/1 42/5/1
f 44/5/1 40/5/1 43/5/1
f 45/5/1 41/5/1 39/5/1
f 46/4/1 42/4/1 41/4/1
f 46/5/1 41/5/1 45/5/1
f 47/5/1 43/5/1 42/5/1
f 47/4/1 42/4/1 46/4/1
f 48/4/1 44/4/1 43/4/1
f 48/5/1 43/5/1 47/5/1
f 49/5/1 40/5/1 44/5/1
f 49/4/1 44/4/1 48/4/1
f 50/5/1 40/5/1 49/5/1
f 51/2/2 52/2/2 55/2/2
f 52/3/2 53/3/2 55/3/2
f 53/2/2 54/2/2 56/2/2
f 55/3/2 53/3/2 56/3/2
f 51/2/2 55/2/2 57/2/2
f 55/2/2 56/2/2 57/2/2
f 57/2/2 56/2/2 58/2/2
f 56/2/2 54/2/2 59/2/2
f 58/2/2 56/2/2 59/2/2
f 59/2/2 54/2/2 60/2/2
f 57/3/2 58/3/2 61/3/2
f 51/2/2 57/2/2 61/2/2
f 58/2/2 59/2/2 62/2/2
f 61/3/2 58/3/2 62/3/2
f 62/2/2 59/2/2 63/2/2
f 63/2/2 59/2/2 64/2/2
f 59/3/2 60/3/2 65/3/2
f 64/2/2 59/2/2 65/2/2
f 60/2/2 54/2/2 66/2/2
f 65/3/2 60/3/2 66/3/2
f 66/2/2 54/2/2 67/2/2
f 67/2/2 54/2/2 68/2/2
f 63/3/2 64/3/2 69/3/2
f 61/2/2 62/2/2 69/2/2
f 62/2/2 63/2/2 69/2/2
f 64/2/2 65/2/2 70/2/2
f 69/3/2 64/3/2 70/3/2
f 66/2/2 67/2/2 70/2/2
f 65/2/2 66/2/2 70/2/2
f 67/3/2 68/3/2 71/3/2
f 70/2/2 67/2/2 71/2/2
f 68/2/2 54/2/2 72/2/2
f 71/3/2 68/3/2 72/3/2
f 61/2/2 69/2/2 73/2/2
f 70/2/2 71/2/2 73/2/2
f 71/2/2 72/2/2 73/2/2
f 69/2/2 70/2/2 73/2/2
f 73/2/2 72/2/2 74/2/2
f 74/2/2 72/2/2 75/2/2
f 75/2/2 72/2/2 76/2/2
f 61/2/2 73/2/2 77/2/2
f 73/3/2 74/3/2 77/3/2
f 74/2/2 75/2/2 78/2/2
f 77/3/2 74/3/2 78/3/2
f 75/3/2 76/3/2 79/3/2
f 78/2/2 75/2/2 79/2/2
f 76/2/2 72/2/2 80/2/2
f 79/3/2 76/3/2 80/3/2
f 78/2/2 79/2/2 81/2/2
f 80/2/2 72/2/2 81/2/2
f 79/2/2 80/2/2 81/2/2
f 77/2/2 78/2/2 81/2/2
f 72/2/2 54/2/2 82/2/2
f 81/2/2 72/2/2 82/2/2
f 77/2/2 81/2/2 83/2/2
f 83/2/2 81/2/2 84/2/2
f 81/3/2 82/3/2 85/3/2
f 84/2/2 81/2/2 85/2/2
f 82/2/2 54/2/2 86/2/2
f 85/3/2 82/3/2 86/3/2
f 83/3/2 84/3/2 87/3/2
f 77/2/2 83/2/2 87/2/2
f 84/2/2 85/2/2 88/2/2
f 87/3/2 84/3/2 88/3/2
f 85/2/2 86/2/2 88/2/2
f 88/2/2 86/2/2 89/2/2
f 89/2/2 86/2/2 90/2/2
f 77/2/2 87/2/2 91/2/2
f 61/2/2 77/2/2 91/2/2
f 87/2/2 88/2/2 91/2/2
f 88/2/2 89/2/2 91/2/2
f 91/2/2 89/2/2 92/2/2
f 89/3/2 90/3/2 93/3/2
f 92/2/2 89/2/2 93/2/2
f 90/2/2 86/2/2 94/2/2
f 93/3/2 90/3/2 94/3/2
f 91/3/2 92/3/2 95/3/2
f 61/2/2 91/2/2 95/2/2
f 92/2/2 93/2/2 96/2/2
f 95/3/2 92/3/2 96/3/2
f 93/2/2 94/2/2 96/2/2
f 61/2/2 95/2/2 97/2/2
f 51/2/2 61/2/2 97/2/2
f 95/2/2 96/2/2 97/2/2
f 96/2/2 94/2/2 98/2/2
f 97/2/2 96/2/2 98/2/2
f 86/2/2 54/2/2 98/2/2
f 94/2/2 86/2/2 98/2/2
f 97/5/2 98/5/2 99/5/2
f 99/5/2 98/5/2 100/5/2
f 97/5/2 99/5/2 101/5/2
f 99/4/2 100/4/2 102/4/2
f 101/5/2 99/5/2 102/5/2
f 100/5/2 98/5/2 103/5/2
f 102/4/2 100/4/2 103/4/2
f 103/5/2 98/5/2 104/5/2
f 108/2/3 106/2/3 105/2/3
f 109/2/3 106/2/3 108/2/3
f 110/2/3 106/2/3 109/2/3
f 111/2/3 106/2/3 110/2/3
f 112/5/3 107/5/3 106/5/3
f 113/5/3 107/5/3 112/5/3
f 114/2/3 108/2/3 105/2/3
f 115/2/3 108/2/3 114/2/3
f 116/3/3 109/3/3 108/3/3
f 116/2/3 108/2/3 115/2/3
f 117/2/3 110/2/3 109/2/3
f 117/3/3 109/3/3 116/3/3
f 118/3/3 111/3/3 110/3/3
f 118/2/3 110/2/3 117/2/3
f 119/2/3 106/2/3 111/2/3
f 119/3/3 111/3/3 118/3/3
f 120/5/3 112/5/3 106/5/3
f 120/4/3 113/4/3 112/4/3
f 121/4/3 113/4/3 120/4/3
f 122/3/3 115/3/3 114/3/3
f 122/2/3 114/2/3 105/2/3
f 123/2/3 118/2/3 117/2/3
f 123/3/3 115/3/3 122/3/3
f 123/2/3 116/2/3 115/2/3
f 123/2/3 117/2/3 116/2/3
f 123/2/3 119/2/3 118/2/3
f 124/2/3 123/2/3 122/2/3
f 124/2/3 119/2/3 123/2/3
f 125/2/3 119/2/3 124/2/3
f 126/2/3 124/2/3 122/2/3
f 127/2/3 124/2/3 126/2/3
f 128/3/3 125/3/3 124/3/3
f 128/2/3 124/2/3 127/2/3
f 129/2/3 119/2/3 125/2/3
f 129/3/3 125/3/3 128/3/3
f 130/3/3 127/3/3 126/3/3
f 130/2/3 126/2/3 122/2/3
f 131/2/3 128/2/3 127/2/3
f 131/3/3 127/3/3 130/3/3
f 131/2/3 129/2/3 128/2/3
f 132/2/3 129/2/3 131/2/3
f 133/2/3 119/2/3 129/2/3
f 133/2/3 129/2/3 132/2/3
f 134/2/3 132/2/3 131/2/3
f 134/2/3 131/2/3 130/2/3
f 134/3/3 133/3/3 132/3/3
f 135/2/3 119/2/3 133/2/3
f 135/3/3 133/3/3 134/3/3
f 136/2/3 134/2/3 130/2/3
f 136/2/3 135/2/3 134/2/3
f 137/2/3 135/2/3 136/2/3
f 138/2/3 119/2/3 135/2/3
f 138/2/3 135/2/3 137/2/3
f 139/2/3 119/2/3 138/2/3
f 140/3/3 137/3/3 136/3/3
f 140/2/3 136/2/3 130/2/3
f 141/2/3 138/2/3 137/2/3
f 141/3/3 137/3/3 140/3/3
f 142/3/3 139/3/3 138/3/3
f 142/2/3 138/2/3 141/2/3
f 143/2/3 119/2/3 139/2/3
f 143/3/3 139/3/3 142/3/3
f 144/2/3 142/2/3 141/2/3
f 144/2/3 141/2/3 140/2/3
f 144/2/3 143/2/3 142/2/3
f 144/2/3 140/2/3 130/2/3
f 145/2/3 143/2/3 144/2/3
f 146/2/3 144/2/3 130/2/3
f 146/3/3 145/3/3 144/3/3
f 147/2/3 143/2/3 145/2/3
f 147/3/3 145/3/3 146/3/3
f 148/2/3 119/2/3 143/2/3
f 148/2/3 143/2/3 147/2/3
f 149/2/3 119/2/3 148/2/3
f 150/2/3 147/2/3 146/2/3
f 150/2/3 148/2/3 147/2/3
f 150/3/3 149/3/3 148/3/3
f 151/2/3 119/2/3 149/2/3
f 151/3/3 149/3/3 150/3/3
f 152/2/3 122/2/3 105/2/3
f 152/2/3 130/2/3 122/2/3
f 152/2/3 151/2/3 150/2/3
f 152/2/3 146/2/3 130/2/3
f 152/2/3 150/2/3 146/2/3
f 153/2/3 119/2/3 151/2/3
f 153/2/3 151/2/3 152/2/3
f 153/5/3 120/5/3 106/5/3
f 153/2/3 106/2/3 119/2/3
f 153/5/3 121/5/3 120/5/3
f 154/5/3 121/5/3 153/5/3
f 155/2/4 156/2/4 158/2/4
f 158/2/4 156/2/4 159/2/4
f 159/2/4 156/2/4 160/2/4
f 160/2/4 156/2/4 161/2/4
f 155/2/4 158/2/4 162/2/4
f 158/3/4 159/3/4 162/3/4
f 159/2/4 160/2/4 163/2/4
f 162/3/4 159/3/4 163/3/4
f 160/3/4 161/3/4 164/3/4
f 163/2/4 160/2/4 164/2/4
f 161/2/4 156/2/4 165/2/4
f 164/3/4 161/3/4 165/3/4
f 163/2/4 164/2/4 166/2/4
f 162/2/4 163/2/4 166/2/4
f 164/2/4 165/2/4 166/2/4
f 155/2/4 162/2/4 166/2/4
f 166/2/4 165/2/4 167/2/4
f 155/2/4 166/2/4 168/2/4
f 166/3/4 167/3/4 168/3/4
f 167/2/4 165/2/4 169/2/4
f 168/3/4 167/3/4 169/3/4
f 168/2/4 169/2/4 170/2/4
f 169/2/4 165/2/4 170/2/4
f 165/2/4 156/2/4 171/2/4
f 170/2/4 165/2/4 171/2/4
f 168/2/4 170/2/4 172/2/4
f 172/2/4 170/2/4 173/2/4
f 173/2/4 170/2/4 174/2/4
f 174/2/4 170/2/4 175/2/4
f 170/3/4 171/3/4 176/3/4
f 175/2/4 170/2/4 176/2/4
f 171/2/4 156/2/4 177/2/4
f 176/3/4 171/3/4 177/3/4
f 168/2/4 172/2/4 178/2/4
f 172/3/4 173/3/4 178/3/4
f 173/2/4 174/2/4 179/2/4
f 178/3/4 173/3/4 179/3/4
f 174/3/4 175/3/4 180/3/4
f 179/2/4 174/2/4 180/2/4
f 175/2/4 176/2/4 181/2/4
f 180/3/4 175/3/4 181/3/4
f 176/2/4 177/2/4 181/2/4
f 179/2/4 180/2/4 182/2/4
f 155/2/4 168/2/4 182/2/4
f 180/2/4 181/2/4 182/2/4
f 168/2/4 178/2/4 182/2/4
f 178/2/4 179/2/4 182/2/4
f 182/2/4 181/2/4 183/2/4
f 183/2/4 181/2/4 184/2/4
f 184/2/4 181/2/4 185/2/4
f 181/2/4 177/2/4 186/2/4
f 185/2/4 181/2/4 186/2/4
f 177/2/4 156/2/4 186/2/4
f 186/2/4 156/2/4 187/2/4
f 155/2/4 182/2/4 188/2/4
f 182/3/4 183/3/4 188/3/4
f 183/2/4 184/2/4 189/2/4
f 188/3/4 183/3/4 189/3/4
f 184/3/4 185/3/4 190/3/4
f 189/2/4 184/2/4 190/2/4
f 185/2/4 186/2/4 191/2/4
f 190/3/4 185/3/4 191/3/4
f 186/3/4 187/3/4 192/3/4
f 191/2/4 186/2/4 192/2/4
f 187/2/4 156/2/4 193/2/4
f 192/3/4 187/3/4 193/3/4
f 188/2/4 189/2/4 194/2/4
f 155/2/4 188/2/4 194/2/4
f 192/2/4 193/2/4 194/2/4
f 189/2/4 190/2/4 194/2/4
f 190/2/4 191/2/4 194/2/4
f 191/2/4 192/2/4 194/2/4
f 156/5/4 157/5/4 195/5/4
f 194/2/4 193/2/4 195/2/4
f 193/2/4 156/2/4 195/2/4
f 195/5/4 157/5/4 196/5/4
f 199/2/5 198/2/5 197/2/5
f 200/2/5 198/2/5 199/2/5
f 201/1/5 200/1/5 199/1/5
f 201/2/5 198/2/5 200/2/5
f 202/2/5 198/2/5 201/2/5
f 203/1/5 201/1/5 199/1/5
f 203/3/5 202/3/5 201/3/5
f 204/3/5 202/3/5 203/3/5
f 205/2/5 199/2/5 197/2/5
f 205/1/5 203/1/5 199/1/5
f 206/2/5 204/2/5 203/2/5
f 206/1/5 203/1/5 205/1/5
f 207/2/5 205/2/5 197/2/5
f 207/2/5 206/2/5 205/2/5
f 208/2/5 204/2/5 206/2/5
f 208/2/5 206/2/5 207/2/5
f 211/5/6 212/5/6 213/5/6
f 213/5/6 212/5/6 214/5/6
f 214/5/6 212/5/6 215/5/6
f 215/5/6 212/5/6 216/5/6
f 209/5/6 210/5/6 217/5/6
f 210/4/6 211/4/6 217/4/6
f 211/5/6 213/5/6 218/5/6
f 217/4/6 211/4/6 218/4/6
f 218/5/6 213/5/6 219/5/6
f 219/5/6 213/5/6 220/5/6
f 220/5/6 213/5/6 221/5/6
f 221/5/6 213/5/6 222/5/6
f 213/4/6 214/4/6 223/4/6
f 222/5/6 213/5/6 223/5/6
f 214/5/6 215/5/6 224/5/6
f 223/4/6 214/4/6 224/4/6
f 215/4/6 216/4/6 225/4/6
f 224/5/6 215/5/6 225/5/6
f 225/4/6 216/4/6 226/4/6
f 209/5/6 217/5/6 227/5/6
f 217/5/6 218/5/6 227/5/6
f 218/5/6 219/5/6 227/5/6
f 227/5/6 219/5/6 228/5/6
f 228/5/6 219/5/6 229/5/6
f 229/5/6 219/5/6 230/5/6
f 219/4/6 220/4/6 231/4/6
f 230/5/6 219/5/6 231/5/6
f 220/5/6 221/5/6 232/5/6
f 231/4/6 220/4/6 232/4/6
f 221/4/6 222/4/6 233/4/6
f 232/5/6 221/5/6 233/5/6
f 223/5/6 224/5/6 234/5/6
f 233/4/6 222/4/6 234/4/6
f 222/5/6 223/5/6 234/5/6
f 225/5/6 226/5/6 234/5/6
f 224/5/6 225/5/6 234/5/6
f 234/5/6 226/5/6 235/5/6
f 235/5/6 226/5/6 236/5/6
f 236/5/6 226/5/6 237/5/6
f 227/4/6 228/4/6 238/4/6
f 228/5/6 229/5/6 239/5/6
f 238/4/6 228/4/6 239/4/6
f 229/4/6 230/4/6 240/4/6
f 239/5/6 229/5/6 240/5/6
f 232/5/6 233/5/6 241/5/6
f 240/4/6 230/4/6 241/4/6
f 231/5/6 232/5/6 241/5/6
f 230/5/6 231/5/6 241/5/6
f 233/5/6 234/5/6 241/5/6
f 234/4/6 235/4/6 242/4/6
f 241/5/6 234/5/6 242/5/6
f 235/5/6 236/5/6 243/5/6
f 242/4/6 235/4/6 243/4/6
f 236/4/6 237/4/6 244/4/6
f 243/5/6 236/5/6 244/5/6
f 237/5/6 226/5/6 245/5/6
f 244/4/6 237/4/6 245/4/6
f 239/5/6 240/5/6 246/5/6
f 242/5/6 243/5/6 246/5/6
f 244/5/6 245/5/6 246/5/6
f 240/5/6 241/5/6 246/5/6
f 241/5/6 242/5/6 246/5/6
f 238/5/6 239/5/6 246/5/6
f 243/5/6 244/5/6 246/5/6
f 246/5/6 245/5/6 247/5/6
f 247/5/6 245/5/6 248/5/6
f 248/5/6 245/5/6 249/5/6
f 238/5/6 246/5/6 250/5/6
f 246/4/6 247/4/6 250/4/6
f 247/5/6 248/5/6 251/5/6
f 250/4/6 247/4/6 251/4/6
f 251/5/6 248/5/6 252/5/6
f 248/4/6 249/4/6 253/4/6
f 252/5/6 248/5/6 253/5/6
f 249/5/6 245/5/6 254/5/6
f 253/4/6 249/4/6 254/4/6
f 254/5/6 245/5/6 255/5/6
f 255/5/6 245/5/6 256/5/6
f 238/5/6 250/5/6 257/5/6
f 250/5/6 251/5/6 257/5/6
f 257/5/6 251/5/6 258/5/6
f 251/4/6 252/4/6 259/4/6
f 258/5/6 251/5/6 259/5/6
f 252/5/6 253/5/6 260/5/6
f 259/4/6 252/4/6 260/4/6
f 253/5/6 254/5/6 260/5/6
f 254/5/6 255/5/6 260/5/6
f 255/4/6 256/4/6 261/4/6
f 260/5/6 255/5/6 261/5/6
f 256/5/6 245/5/6 262/5/6
f 261/4/6 256/4/6 262/4/6
f 262/5/6 245/5/6 263/5/6
f 238/5/6 257/5/6 264/5/6
f 264/5/6 257/5/6 265/5/6
f 257/4/6 258/4/6 266/4/6
f 265/5/6 257/5/6 266/5/6
f 258/5/6 259/5/6 267/5/6
f 266/4/6 258/4/6 267/4/6
f 260/5/6 261/5/6 267/5/6
f 259/5/6 260/5/6 267/5/6
f 261/5/6 262/5/6 267/5/6
f 267/5/6 262/5/6 268/5/6
f 268/5/6 262/5/6 269/5/6
f 269/5/6 262/5/6 270/5/6
f 270/5/6 262/5/6 271/5/6
f 271/5/6 262/5/6 272/5/6
f 272/5/6 262/5/6 273/5/6
f 262/4/6 263/4/6 274/4/6
f 273/5/6 262/5/6 274/5/6
f 263/5/6 245/5/6 275/5/6
f 274/4/6 263/4/6 275/4/6
f 264/4/6 265/4/6 276/4/6
f 238/5/6 264/5/6 276/5/6
f 265/5/6 266/5/6 277/5/6
f 276/4/6 265/4/6 277/4/6
f 266/5/6 267/5/6 277/5/6
f 267/5/6 268/5/6 277/5/6
f 268/4/6 269/4/6 278/4/6
f 277/5/6 268/5/6 278/5/6
f 269/5/6 270/5/6 279/5/6
f 278/4/6 269/4/6 279/4/6
f 270/4/6 271/4/6 280/4/6
f 279/5/6 270/5/6 280/5/6
f 271/5/6 272/5/6 281/5/6
f 280/4/6 271/4/6 281/4/6
f 272/4/6 273/4/6 282/4/6
f 281/5/6 272/5/6 282/5/6
f 274/5/6 275/5/6 283/5/6
f 282/4/6 273/4/6 283/4/6
f 273/5/6 274/5/6 283/5/6
f 283/5/6 275/5/6 284/5/6
f 238/5/6 276/5/6 285/5/6
f 280/5/6 281/5/6 285/5/6
f 277/5/6 278/5/6 285/5/6
f 279/5/6 280/5/6 285/5/6
f 276/5/6 277/5/6 285/5/6
f 278/5/6 279/5/6 285/5/6
f 285/5/6 281/5/6 286/5/6
f 286/5/6 281/5/6 287/5/6
f 287/5/6 281/5/6 288/5/6
f 281/4/6 282/4/6 289/4/6
f 288/5/6 281/5/6 289/5/6
f 282/5/6 283/5/6 290/5/6
f 289/4/6 282/4/6 290/4/6
f 283/4/6 284/4/6 291/4/6
f 290/5/6 283/5/6 291/5/6
f 284/5/6 275/5/6 292/5/6
f 291/4/6 284/4/6 292/4/6
f 285/4/6 286/4/6 293/4/6
f 286/5/6 287/5/6 294/5/6
f 293/4/6 286/4/6 294/4/6
f 287/4/6 288/4/6 295/4/6
f 294/5/6 287/5/6 295/5/6
f 290/5/6 291/5/6 296/5/6
f 295/4/6 288/4/6 296/4/6
f 289/5/6 290/5/6 296/5/6
f 291/5/6 292/5/6 296/5/6
f 288/5/6 289/5/6 296/5/6
f 296/5/6 292/5/6 297/5/6
f 297/5/6 292/5/6 298/5/6
f 298/5/6 292/5/6 299/5/6
f 299/5/6 292/5/6 300/5/6
f 292/5/6 275/5/6 301/5/6
f 300/5/6 292/5/6 301/5/6
f 275/5/6 245/5/6 302/5/6
f 301/5/6 275/5/6 302/5/6
f 294/5/6 295/5/6 303/5/6
f 293/5/6 294/5/6 303/5/6
f 295/5/6 296/5/6 303/5/6
f 296/5/6 297/5/6 303/5/6
f 303/5/6 297/5/6 304/5/6
f 299/4/6 300/4/6 305/4/6
f 298/5/6 299/5/6 305/5/6
f 300/5/6 301/5/6 306/5/6
f 305/4/6 300/4/6 306/4/6
f 301/4/6 302/4/6 307/4/6
f 306/5/6 301/5/6 307/5/6
f 302/5/6 245/5/6 308/5/6
f 307/4/6 302/4/6 308/4/6
f 303/4/6 304/4/6 309/4/6
f 293/5/6 303/5/6 309/5/6
f 304/5/6 297/5/6 310/5/6
f 309/4/6 304/4/6 310/4/6
f 310/5/6 297/5/6 311/5/6
f 311/5/6 297/5/6 312/5/6
f 297/4/6 298/4/6 313/4/6
f 312/5/6 297/5/6 313/5/6
f 306/5/6 307/5/6 314/5/6
f 313/4/6 298/4/6 314/4/6
f 298/5/6 305/5/6 314/5/6
f 305/5/6 306/5/6 314/5/6
f 307/5/6 308/5/6 314/5/6
f 314/5/6 308/5/6 315/5/6
f 315/5/6 308/5/6 316/5/6
f 310/5/6 311/5/6 317/5/6
f 309/5/6 310/5/6 317/5/6
f 293/5/6 309/5/6 317/5/6
f 317/5/6 311/5/6 318/5/6
f 311/4/6 312/4/6 319/4/6
f 318/5/6 311/5/6 319/5/6
f 312/5/6 313/5/6 320/5/6
f 319/4/6 312/4/6 320/4/6
f 314/5/6 315/5/6 320/5/6
f 313/5/6 314/5/6 320/5/6
f 320/5/6 315/5/6 321/5/6
f 315/4/6 316/4/6 322/4/6
f 321/5/6 315/5/6 322/5/6
f 316/5/6 308/5/6 323/5/6
f 322/4/6 316/4/6 323/4/6
f 323/5/6 308/5/6 324/5/6
f 308/5/6 245/5/6 325/5/6
f 324/5/6 308/5/6 325/5/6
f 293/5/6 317/5/6 326/5/6
f 317/4/6 318/4/6 326/4/6
f 318/5/6 319/5/6 327/5/6
f 326/4/6 318/4/6 327/4/6
f 320/5/6 321/5/6 327/5/6
f 319/5/6 320/5/6 327/5/6
f 321/4/6 322/4/6 328/4/6
f 327/5/6 321/5/6 328/5/6
f 322/5/6 323/5/6 329/5/6
f 328/4/6 322/4/6 329/4/6
f 323/5/6 324/5/6 329/5/6
f 324/4/6 325/4/6 330/4/6
f 329/5/6 324/5/6 330/5/6
f 325/5/6 245/5/6 331/5/6
f 330/4/6 325/4/6 331/4/6
f 293/5/6 326/5/6 332/5/6
f 326/5/6 327/5/6 332/5/6
f 330/5/6 331/5/6 332/5/6
f 328/5/6 329/5/6 332/5/6
f 327/5/6 328/5/6 332/5/6
f 329/5/6 330/5/6 332/5/6
f 245/5/6 226/5/6 333/5/6
f 332/5/6 331/5/6 333/5/6
f 331/5/6 245/5/6 333/5/6
